<?xml version="1.0" encoding="UTF-8"?>
<svg id="Layer_1" xmlns="http://www.w3.org/2000/svg" version="1.1" viewBox="0 0 400 400">
  <!-- Generator: Adobe Illustrator 29.6.1, SVG Export Plug-In . SVG Version: 2.1.1 Build 9)  -->
  <defs>
    <style>
      .st0 {
        fill: #479371;
      }
    </style>
  </defs>
  <path class="st0" d="M200.3622141,42.4050875c-85.7625504,0-155.2868519,69.5242443-155.2868519,155.2867947,0,46.719574,20.6353779,88.6164398,53.2848377,117.0840607,4.6969986-11.5192261,10.3602753-25.4654236,16.2876053-40.5758972-18.1724548-20.3374634-29.2385635-47.1530457-29.2385635-76.5082092,0-63.385437,51.5677032-114.9530869,114.9530792-114.9530869,12.7397919,0,25.0004883,2.0869217,36.4627228,5.9305038-.9105225,5.5520554-4.7621613,11.358345-10.8439636,16.7992325-9.0584412,8.1041183-23.032959,15.3945923-39.5294037,19.8063736-5.8374481,1.5612564-11.5804901,2.6496735-17.094696,3.298584,3.3018799,50.6571808-63.937645,200.1292877-72.293129,224.6084137l27.7028046-43.1896667,83.2261581-130.8037872c-4.1588287-4.7992401-4.5739441-12.1360321-.2315369-17.4662018,3.9302063-4.8242035,10.8556213-6.3254242,16.4316559-3.5635529,7.3701019,3.6504364,9.7529144,12.7524872,5.4384003,19.4791107-3.3204193,5.1763458-9.5717621,7.3261108-15.1900787,5.6867676l-84.1817169,130.1908875-27.7028046,43.1896667c18.764679-17.8022766,126.5806732-141.2477875,174.0000153-159.3712311-1.7096252-5.2823792-3.1151886-10.9562225-4.1306305-16.9130249-2.8692017-16.8333435-2.0703278-32.5748444,1.5179291-44.1876526,2.3807983-7.7051086,5.994751-13.5779572,10.583374-16.7485352,19.0910034,20.5311737,30.7879639,48.0267792,30.7879639,78.2072296,0,63.384964-51.5677032,114.9530945-114.9530945,114.9530945-11.5725403,0-22.7481689-1.7259827-33.2909698-4.921936-11.2725677,11.6983948-21.59758,22.672699-30.1184387,31.7555847,19.3618469,8.6722412,40.8209839,13.5001526,63.409317,13.5001526,85.7625427,0,155.2868652-69.5242615,155.2868652-155.28685S286.1248026,42.4051065,200.3622446,42.4051065l-.0000458-.0000191h.0000153Z"/>
</svg>