<?xml version="1.0" encoding="UTF-8"?>
<svg id="Layer_1" xmlns="http://www.w3.org/2000/svg" version="1.1" viewBox="0 0 361.7000122 361.7000122">
  <!-- Generator: Adobe Illustrator 29.6.1, SVG Export Plug-In . SVG Version: 2.1.1 Build 9)  -->
  <defs>
    <style>
      .st0 {
        fill: #469168;
      }

      .st1 {
        fill: #d700ed;
      }
    </style>
  </defs>
  <path class="st0" d="M253.8999939,55.4000015"/>
  <path class="st1" d="M180.8500061,59.4102478c-66.2741623,0-120,53.7257919-120,119.9999542,0,36.1031799,15.9462662,68.479538,41.1765747,90.4782867,3.6296692-8.9016418,8.0060425-19.6787567,12.5864639-31.3555756-14.0430069-15.7160492-22.5944901-36.4381561-22.5944901-59.1227417,0-48.9819489,39.8496399-88.831543,88.831543-88.831543,9.8448486,0,19.319458,1.6126938,28.177063,4.5828781-.7036133,4.2904282-3.6800232,8.7773132-8.3798218,12.9818344-7.0000305,6.2625656-17.7990265,11.8963776-30.546875,15.3056412-4.5109711,1.2064819-8.9489746,2.0475693-13.2101593,2.5490265,2.5515747,39.146019-49.4086761,154.6525955-55.8654861,173.5691605l21.4077148-33.3753967,64.3141403-101.0803833c-3.2137909-3.7086792-3.5345764-9.3782806-.1789246-13.4972382,3.0371246-3.7279663,8.3888245-4.8880615,12.6977844-2.7537842,5.695343,2.8209229,7.5366974,9.85466,4.2025909,15.0527496-2.5659027,4.0000916-7.3967133,5.6613464-11.7383423,4.3945312l-65.0525513,100.6067505-21.4077148,33.3753967c14.5006561-13.756958,97.8169098-109.151123,134.4608612-123.1562653-1.3211365-4.0820312-2.4073029-8.466568-3.1920013-13.0697632-2.2172089-13.008194-1.5998688-25.1726532,1.1730042-34.1466064,1.839798-5.9542236,4.6325226-10.4925461,8.1784515-12.9426575,14.7528381,15.8657379,23.7918091,37.1133423,23.7918091,60.4356842,0,48.9815826-39.8496399,88.831543-88.831543,88.831543-8.9428406,0-17.578949-1.3337708-25.7260437-3.8034973-8.7110291,9.0401001-16.6898193,17.5206299-23.2744293,24.5395508,14.9621277,6.7015991,31.5449677,10.4324341,49.0003967,10.4324341,66.2741547,0,120.0000153-53.7257996,120.0000153-120s-53.7258301-119.9999542-120-119.9999542l-.0000305-.0000153Z"/>
</svg>