<?xml version="1.0" encoding="UTF-8"?>
<svg id="Layer_1" xmlns="http://www.w3.org/2000/svg" version="1.1" viewBox="0 0 1528.9000244 361.7000122">
  <!-- Generator: Adobe Illustrator 29.6.1, SVG Export Plug-In . SVG Version: 2.1.1 Build 9)  -->
  <defs>
    <style>
      .st0 {
        fill: #fff;
      }

      .st1 {
        fill: #00b878;
      }
    </style>
  </defs>
  <g>
    <path class="st0" d="M593.7000122,132.3000031c-6.7000122-3.5-14.4000244-5.3000031-23-5.3000031s-19.5,2.6000061-27.5,7.8000031c-4.2000122,2.6999969-7.7999878,6-10.9000244,9.8000031-2.5-4-5.7000122-7.3000031-9.4000244-9.8999939-7.5-5.1000061-16.2999878-7.6999969-26.3999939-7.6999969s-16.6000061,2-23.7000122,6.1000061c-3.3999939,2-6.5,4.3999939-9.2000122,7.3000031v-11.6000061h-37.2000122v111h38.7999878v-54.8000031c0-5.8999939.8999939-10.6000061,2.6000061-14.1999969,1.7000122-3.6000061,4.1000061-6.3000031,7.1000061-8.1000061s6.2999878-2.6999969,10-2.6999969c5.2999878,0,9.3999939,1.8000031,12.3999939,5.3999939,2.8999939,3.6000061,4.3999939,9.3999939,4.3999939,17.3000031v57h38.8999939v-54.8000031c0-5.8999939.7999878-10.6000061,2.5-14.1999969,1.5999756-3.6000061,3.9000244-6.3000031,6.9000244-8.1000061,2.9000244-1.8000031,6.2999878-2.6999969,10.0999756-2.6999969s9.2999878,1.8000031,12.2999878,5.3999939c3,3.6000061,4.5,9.3999939,4.5,17.3000031v57h38.9000244v-63.3999939c0-11.5-1.9000244-20.8000031-5.7999878-28-3.9000244-7.1999969-9.2000122-12.6000061-15.9000244-16.1999969l-.3999023.2999878Z"/>
    <path class="st0" d="M692.4000244,196.6000061l-27.2000122-67.8999939h-39.9000244l47.5,112.3999939c-1.5,2.8999939-3.2000122,5.1000061-5,6.6000061-2.4000244,1.8999939-5.7999878,2.8999939-10.0999756,2.8999939s-6-.6000061-9.0999756-1.6999969c-3.0999756-1.1999969-5.7999878-2.6999969-8.0999756-4.6000061l-13.7000122,26.9999847c3.7999878,3,8.7000122,5.3999939,14.7000122,7.2999878,6,1.7999878,11.9000244,2.7999878,17.5999756,2.7999878s14.0999756-1.1000061,20.0999756-3.2999878c6.0999756-2.2000122,11.5999756-6,16.5-11.2999878,4.9000244-5.3999939,9.2999878-12.8999939,13.2999878-22.3999939l47.5999756-115.5h-36.7999878l-27.4000244,67.8999939.000061-.1999817Z"/>
    <path class="st0" d="M864.0999756,134.1000061c-8.2000122-4.8000031-17.4000244-7.1999969-27.5-7.1999969s-18.2000122,2.1000061-24.7999878,6.1999969c-2.9000244,1.8000031-5.4000244,4-7.7000122,6.6999969v-11.1000061h-37.2000122v150.6999969h38.9000244v-49.6000061c2,2.1000061,4.2999878,4,6.7000122,5.5,6.7000122,4.1999969,14.7000122,6.1999969,24.0999756,6.1999969s19.2999878-2.3000031,27.5-7c8.2000122-4.6000061,14.7999878-11.1999969,19.5999756-19.8000031s7.2999878-18.6999969,7.2999878-30.3000031-2.4000244-22-7.2999878-30.6000061c-4.7999878-8.5-11.4000244-15.1999969-19.5999756-19.8999939v.2000275ZM848.5,198.6999969c-2.0999756,4-4.9000244,7-8.4000244,9s-7.4000244,3.1000061-11.7999878,3.1000061-8.2999878-1-11.7999878-3.1000061c-3.5-2-6.2999878-5-8.4000244-9-2.0999756-4-3.2000122-8.6999969-3.2000122-14.1000061s1.0999756-10.6999969,3.2000122-14.6000061c2.0999756-3.8999939,4.9000244-6.8999939,8.4000244-8.8999939s7.4000244-3.1000061,11.7999878-3.1000061,8.2999878,1,11.7999878,3.1000061c3.5,2,6.2999878,5,8.4000244,8.8999939,2.0999756,3.8999939,3.2000122,8.8000031,3.2000122,14.6000061s-1.0999756,10.1999969-3.2000122,14.1000061Z"/>
    <path class="st0" d="M992.7000122,133.8000031c-8.9000244-4.6000061-18.7999878-6.9000015-29.7999878-6.9000015s-22.2000122,2.4999924-31.4000244,7.4000015c-9.2000122,4.8999939-16.4000244,11.6999969-21.7000122,20.3000031-5.2000122,8.6999969-7.9000244,18.6000061-7.9000244,29.8000031s2.7000122,20.6999969,8.0999756,29.3000031c5.4000244,8.6999969,12.9000244,15.5,22.7000122,20.3999939,9.7000122,5,21.2000122,7.5,34.5,7.5s19.5999756-1.5,27.4000244-4.6000061c7.7999878-3.1000061,14.2000122-7.5,19.4000244-13.1999969l-20.2000122-21.5c-3.7999878,3.3000031-7.5999756,5.6999969-11.5,7.3000031-3.7999878,1.6000061-8.5,2.3999939-14.0999756,2.3999939s-10.9000244-1.1000061-15.0999756-3.1999969c-4.2000122-2.1000061-7.5-5.1000061-9.7000122-9.1000061-1-1.6999969-1.7000122-3.5-2.2999878-5.5h80.5c.0999756-1.5.2999878-3.1000061.4000244-4.8999939.0999756-1.8000031.2000122-3.3000031.2000122-4.6999969,0-12.3000031-2.7000122-22.6999969-8.0999756-31.1999969-5.4000244-8.5-12.5-15.1000061-21.5-19.6000061h.0999146ZM950.9000244,157.8000031c3.5-2,7.7000122-3.1000061,12.5-3.1000061s8.7000122,1,12.0999756,3.1000061c3.4000244,2,6.0999756,4.8999939,8.0999756,8.6999969,1.2000122,2.1999969,2,4.6000061,2.4000244,7.3000031h-45.4000244c.4000244-2.6000061,1.2000122-5.1000061,2.2999878-7.3000031,1.7999878-3.6999969,4.5-6.6000061,8.0999756-8.6999969h-.0999146Z"/>
    <path class="st0" d="M1135.6999512,132.3000031c-7-3.5-14.6999512-5.3000031-23.3000488-5.3000031s-17.5999756,2.1000061-24.9000244,6.1999969c-3.6999512,2.1000061-7.0999756,4.6999969-10,7.8000031v-12.1999969h-37.1999512v111h38.9000244v-53.4000092c0-6.3000031,1-11.3000031,2.9000244-15.1000061s4.5999756-6.6000061,8-8.5c3.4000244-1.8000031,7.1999512-2.8000031,11.5-2.8000031s9.8000488,1.8000031,13,5.3999939c3.1999512,3.6000061,4.8000488,9.3999939,4.8000488,17.3000031v57h39.0999756v-63.3999939c0-11.5-2-20.8000031-6-28s-9.5-12.6000061-16.5-16.1999969l-.3000488.2000122Z"/>
    <path class="st0" d="M1198.9000244,195.6000061c-6.5,0-12.0999756,2.1000061-16.5999756,6.1999969-4.5,4.1999969-6.6999512,9.6000061-6.6999512,16.5s2.1999512,12.6000061,6.6999512,16.8999939c4.5,4.3000031,10,6.3999939,16.5999756,6.3999939s12.0999756-2.1000061,16.5999756-6.3999939c4.5-4.3000031,6.6999512-9.8999939,6.6999512-16.8999939s-2.1999512-12.3000031-6.6999512-16.5-10-6.1999969-16.5999756-6.1999969Z"/>
    <path class="st0" d="M1322.5999756,142.1999969c-2.9000244-4-6.5-7.1999969-10.5999756-9.6000061-6.6999512-3.8000031-14.8000488-5.6999969-24.3000488-5.6999969s-18.5999756,2.1999969-26.9000244,6.5c-8.1999512,4.3999939-14.9000244,10.6000061-19.8000488,18.6000061-5,8-7.5,17.5-7.5,28.3999939s2.5,20.3000031,7.5,28.3000031,11.5999756,14.1999969,19.8000488,18.6000061c8.1999512,4.3999939,17.1999512,6.6000061,26.9000244,6.6000061s17.6999512-1.8999939,24.3000488-5.6999969c3.1999512-1.8999939,6.0999756-4.1999969,8.5999756-7v3.3999939c0,8.6999969-2.3000488,15.3999939-6.9000244,19.8999939-4.5999756,4.6000061-12,6.8000031-22.4000244,6.8000031s-13.5-1.1000061-20.3000488-3.1999969c-6.9000244-2.1000061-12.5999756-4.8999939-17.3000488-8.5l-14.0999756,27c6.6999512,4.7999878,14.9000244,8.3999939,24.5,10.7999878,9.6999512,2.5,19.8000488,3.7000122,30.5,3.7000122,20.6999512,0,36.6999512-5,47.9000244-15.1000061,11.1999512-10.1000061,16.9000244-25.6000061,16.9000244-46.6000061v-90.8000031h-36.8000488v13.5l.0001221.1000061ZM1318,192.3999939c-2.0999756,3.3999939-4.9000244,6.1000061-8.5,8-3.5,1.8999939-7.6999512,2.8999939-12.5,2.8999939s-8.8000488-1-12.4000244-2.8999939-6.5-4.6000061-8.6999512-8-3.3000488-7.3999939-3.3000488-11.8999939,1.0999756-8.5,3.3000488-11.8999939c2.1999512-3.3999939,5.0999756-6,8.6999512-7.8999939,3.5999756-1.8000031,7.6999512-2.8000031,12.4000244-2.8000031s8.9000244.8999939,12.5,2.8000031c3.5,1.8000031,6.4000244,4.5,8.5,7.8999939s3.1999512,7.3999939,3.1999512,11.8999939-1.0999756,8.5-3.1999512,11.8999939Z"/>
    <path class="st0" d="M1489.6999512,153.3999939c-5.4000244-8.5-12.5-15.1000061-21.5-19.6000061-8.9000244-4.6000061-18.8000488-6.9000015-29.8000488-6.9000015s-22.1999512,2.5000076-31.4000244,7.4000015c-9.1999512,4.8999939-16.4000244,11.6999969-21.6999512,20.3000031-5.1999512,8.6999969-7.9000244,18.6000061-7.9000244,29.8000031s2.6999512,20.6999969,8.0999756,29.3000031c5.4000244,8.6999969,12.9000244,15.5,22.6999512,20.3999939,9.6999512,5,21.1999512,7.5,34.5,7.5s19.5999756-1.5,27.4000244-4.6000061,14.1999512-7.5,19.4000244-13.1999969l-20.1999512-21.5c-3.8000488,3.3000031-7.5999756,5.6999969-11.5,7.3000031-3.8000488,1.6000061-8.5,2.3999939-14.0999756,2.3999939s-10.9000244-1.1000061-15.0999756-3.1999969c-4.1999512-2.1000061-7.5-5.1000061-9.6999512-9.1000061-1-1.6999969-1.6999512-3.5-2.3000488-5.5h80.5c.0999756-1.5.3000488-3.1000061.4000244-4.8999939.0999756-1.8000031.1999512-3.3000031.1999512-4.6999969,0-12.3000031-2.6999512-22.6999969-8.0999756-31.1999969h.0999756ZM1426.5,157.8000031c3.5-2,7.6999512-3.1000061,12.5-3.1000061s8.6999512,1,12.0999756,3.1000061c3.4000244,2,6.0999756,4.8999939,8.0999756,8.6999969,1.1999512,2.1999969,2,4.6000061,2.4000244,7.3000031h-45.4000244c.4000244-2.6000061,1.1999512-5.1000061,2.3000488-7.3000031,1.8000488-3.6999969,4.5-6.6000061,8.0999756-8.6999969h-.0999756Z"/>
  </g>
  <path class="st1" d="M181.9999847,23.6000004C96.2374344,23.6000004,26.7131329,93.1242447,26.7131329,178.886795c0,46.719574,20.6353779,88.6164398,53.2848377,117.0840607,4.6969986-11.5192261,10.3602753-25.4654236,16.2876053-40.5758972-18.1724548-20.3374634-29.2385635-47.1530457-29.2385635-76.5082092,0-63.385437,51.5677032-114.9530869,114.9530792-114.9530869,12.7397919,0,25.0004883,2.0869217,36.4627228,5.9305038-.9105225,5.5520554-4.7621613,11.358345-10.8439636,16.7992325-9.0584412,8.1041183-23.032959,15.3945923-39.5294037,19.8063736-5.8374481,1.5612564-11.5804901,2.6496735-17.094696,3.298584,3.3018799,50.6571808-63.937645,200.1292877-72.293129,224.6084137l27.7028046-43.1896667,83.2261581-130.8037872c-4.1588287-4.7992401-4.5739441-12.1360321-.2315369-17.4662018,3.9302063-4.8242035,10.8556213-6.3254242,16.4316559-3.5635529,7.3701019,3.6504364,9.7529144,12.7524872,5.4384003,19.4791107-3.3204193,5.1763458-9.5717621,7.3261108-15.1900787,5.6867676l-84.1817169,130.1908875-27.7028046,43.1896667c18.764679-17.8022766,126.5806732-141.2477875,174.0000153-159.3712311-1.7096252-5.2823792-3.1151886-10.9562225-4.1306305-16.9130249-2.8692017-16.8333435-2.0703278-32.5748444,1.5179291-44.1876526,2.3807983-7.7051086,5.994751-13.5779572,10.583374-16.7485352,19.0910034,20.5311737,30.7879639,48.0267792,30.7879639,78.2072296,0,63.384964-51.5677032,114.9530945-114.9530945,114.9530945-11.5725403,0-22.7481689-1.7259827-33.2909698-4.921936-11.2725677,11.6983948-21.59758,22.672699-30.1184387,31.7555847,19.3618469,8.6722412,40.8209839,13.5001526,63.409317,13.5001526,85.7625427,0,155.2868652-69.5242615,155.2868652-155.28685S267.7625732,23.6000195,182.0000153,23.6000195l-.0000458-.0000191h.0000153Z"/>
</svg>